<svg width="211" height="50" viewBox="0 0 211 50" fill="none" xmlns="http://www.w3.org/2000/svg">
<path d="M13.44 27.66V31.02H45.36V39H2.94V12.12H45.276V20.1H13.44V23.46H39.48V27.66H13.44ZM49.7552 18.42H59.8352V39H49.7552V18.42ZM74.9552 17.79C76.6072 17.79 78.2032 17.972 79.7432 18.336C81.2832 18.672 82.6552 19.26 83.8592 20.1C85.0912 20.94 86.0712 22.088 86.7992 23.544C87.5272 25 87.8912 26.834 87.8912 29.046V39H77.8112V30.306C77.8112 28.206 77.2652 26.722 76.1732 25.854C75.0812 24.958 73.1072 24.51 70.2512 24.51C68.7392 24.51 67.2692 24.678 65.8412 25.014C64.4412 25.35 63.1812 25.756 62.0612 26.232C60.9412 26.68 60.0592 27.128 59.4152 27.576L59.3312 25.98C59.4432 25.476 59.8212 24.776 60.4652 23.88C61.1372 22.956 62.1032 22.032 63.3632 21.108C64.6232 20.184 66.2052 19.4 68.1092 18.756C70.0412 18.112 72.3232 17.79 74.9552 17.79ZM108.641 36.102C104.665 36.102 101.389 35.78 98.8132 35.136C96.2372 34.464 94.3332 33.47 93.1012 32.154C91.8692 30.81 91.2532 29.13 91.2532 27.114C91.2532 25.238 91.8552 23.614 93.0592 22.242C94.2632 20.842 96.1392 19.75 98.6872 18.966C101.263 18.182 104.581 17.79 108.641 17.79C109.453 17.79 110.279 17.79 111.119 17.79C111.959 17.79 112.785 17.79 113.597 17.79H129.641V23.082C127.821 23.166 125.973 23.082 124.097 22.83C122.249 22.55 120.541 22.186 118.973 21.738L118.511 21.108C119.771 21.5 120.961 22.004 122.081 22.62C123.229 23.236 124.153 23.978 124.853 24.846C125.553 25.714 125.903 26.75 125.903 27.954C125.903 29.69 125.301 31.174 124.097 32.406C122.921 33.61 121.059 34.534 118.511 35.178C115.991 35.794 112.701 36.102 108.641 36.102ZM117.587 48.03V46.896C117.587 46.056 117.209 45.552 116.453 45.384C115.725 45.244 114.563 45.174 112.967 45.174H101.249C99.2612 45.174 97.6512 45.034 96.4192 44.754C95.2152 44.474 94.2912 44.096 93.6472 43.62C93.0312 43.144 92.6112 42.612 92.3872 42.024C92.1912 41.464 92.0932 40.904 92.0932 40.344C92.0932 39.14 92.5412 38.202 93.4372 37.53C94.3332 36.83 95.7052 36.34 97.5532 36.06C99.4012 35.78 101.753 35.64 104.609 35.64L108.641 36.102C106.289 36.102 104.651 36.228 103.727 36.48C102.803 36.704 102.341 37.166 102.341 37.866C102.341 38.258 102.523 38.552 102.887 38.748C103.251 38.916 103.741 39 104.357 39H116.747C119.519 39 121.703 39.196 123.299 39.588C124.895 40.008 126.015 40.694 126.659 41.646C127.331 42.626 127.667 43.956 127.667 45.636V48.03H117.587ZM108.641 30.6C110.489 30.6 111.973 30.46 113.093 30.18C114.241 29.872 115.067 29.466 115.571 28.962C116.075 28.458 116.327 27.898 116.327 27.282C116.327 26.582 116.075 25.98 115.571 25.476C115.067 24.972 114.255 24.58 113.135 24.3C112.015 24.02 110.517 23.88 108.641 23.88C106.793 23.88 105.295 24.02 104.147 24.3C102.999 24.58 102.159 24.972 101.627 25.476C101.095 25.98 100.829 26.582 100.829 27.282C100.829 27.898 101.081 28.458 101.585 28.962C102.117 29.466 102.957 29.872 104.105 30.18C105.253 30.46 106.765 30.6 108.641 30.6ZM148.057 36.102C144.081 36.102 140.805 35.78 138.229 35.136C135.653 34.464 133.749 33.47 132.517 32.154C131.285 30.81 130.669 29.13 130.669 27.114C130.669 25.238 131.271 23.614 132.475 22.242C133.679 20.842 135.555 19.75 138.103 18.966C140.679 18.182 143.997 17.79 148.057 17.79C148.869 17.79 149.695 17.79 150.535 17.79C151.375 17.79 152.201 17.79 153.013 17.79H169.057V23.082C167.237 23.166 165.389 23.082 163.513 22.83C161.665 22.55 159.957 22.186 158.389 21.738L157.927 21.108C159.187 21.5 160.377 22.004 161.497 22.62C162.645 23.236 163.569 23.978 164.269 24.846C164.969 25.714 165.319 26.75 165.319 27.954C165.319 29.69 164.717 31.174 163.513 32.406C162.337 33.61 160.475 34.534 157.927 35.178C155.407 35.794 152.117 36.102 148.057 36.102ZM157.003 48.03V46.896C157.003 46.056 156.625 45.552 155.869 45.384C155.141 45.244 153.979 45.174 152.383 45.174H140.665C138.677 45.174 137.067 45.034 135.835 44.754C134.631 44.474 133.707 44.096 133.063 43.62C132.447 43.144 132.027 42.612 131.803 42.024C131.607 41.464 131.509 40.904 131.509 40.344C131.509 39.14 131.957 38.202 132.853 37.53C133.749 36.83 135.121 36.34 136.969 36.06C138.817 35.78 141.169 35.64 144.025 35.64L148.057 36.102C145.705 36.102 144.067 36.228 143.143 36.48C142.219 36.704 141.757 37.166 141.757 37.866C141.757 38.258 141.939 38.552 142.303 38.748C142.667 38.916 143.157 39 143.773 39H156.163C158.935 39 161.119 39.196 162.715 39.588C164.311 40.008 165.431 40.694 166.075 41.646C166.747 42.626 167.083 43.956 167.083 45.636V48.03H157.003ZM148.057 30.6C149.905 30.6 151.389 30.46 152.509 30.18C153.657 29.872 154.483 29.466 154.987 28.962C155.491 28.458 155.743 27.898 155.743 27.282C155.743 26.582 155.491 25.98 154.987 25.476C154.483 24.972 153.671 24.58 152.551 24.3C151.431 24.02 149.933 23.88 148.057 23.88C146.209 23.88 144.711 24.02 143.563 24.3C142.415 24.58 141.575 24.972 141.043 25.476C140.511 25.98 140.245 26.582 140.245 27.282C140.245 27.898 140.497 28.458 141.001 28.962C141.533 29.466 142.373 29.872 143.521 30.18C144.669 30.46 146.181 30.6 148.057 30.6Z" fill="#141414"/>
<path d="M181.298 39.42C179.506 39.42 177.868 38.958 176.384 38.034C174.9 37.11 173.724 35.836 172.856 34.212C171.988 32.56 171.554 30.67 171.554 28.542C171.554 26.414 171.988 24.538 172.856 22.914C173.752 21.262 174.97 19.974 176.51 19.05C178.05 18.098 179.772 17.622 181.676 17.622C183.776 17.622 185.4 18.112 186.548 19.092C187.724 20.072 188.536 21.388 188.984 23.04C189.46 24.692 189.698 26.526 189.698 28.542C189.698 29.662 189.558 30.852 189.278 32.112C188.998 33.372 188.55 34.562 187.934 35.682C187.318 36.802 186.464 37.712 185.372 38.412C184.28 39.084 182.922 39.42 181.298 39.42ZM182.432 35.934C183.916 35.934 185.162 35.612 186.17 34.968C187.206 34.296 187.976 33.4 188.48 32.28C188.984 31.16 189.236 29.914 189.236 28.542C189.236 27.058 188.97 25.756 188.438 24.636C187.934 23.516 187.164 22.648 186.128 22.032C185.12 21.416 183.888 21.108 182.432 21.108C180.248 21.108 178.554 21.808 177.35 23.208C176.174 24.608 175.586 26.386 175.586 28.542C175.586 29.998 175.88 31.286 176.468 32.406C177.056 33.498 177.854 34.366 178.862 35.01C179.898 35.626 181.088 35.934 182.432 35.934ZM189.236 18.042H193.268V39H189.572C189.572 39 189.544 38.748 189.488 38.244C189.432 37.712 189.376 37.082 189.32 36.354C189.264 35.626 189.236 34.982 189.236 34.422V18.042ZM198.527 18.042H202.559V39H198.527V18.042ZM209.657 21.612C208.201 21.612 206.955 21.948 205.919 22.62C204.911 23.292 204.099 24.118 203.483 25.098C202.895 26.078 202.503 27.016 202.307 27.912L202.265 25.518C202.293 25.238 202.363 24.804 202.475 24.216C202.615 23.6 202.853 22.914 203.189 22.158C203.525 21.402 203.973 20.688 204.533 20.016C205.093 19.316 205.793 18.742 206.633 18.294C207.473 17.846 208.481 17.622 209.657 17.622V21.612Z" fill="#141414"/>
</svg>
