<svg width="251" height="77" viewBox="0 0 251 77" fill="none" xmlns="http://www.w3.org/2000/svg">
<path d="M13.44 41.72V51.896H45.376V59H4.928V17.592H45.312V24.696H13.44V35H39.552V41.72H13.44ZM53.0275 27.192H61.3475V59H53.0275V27.192ZM76.1315 26.488C78.0942 26.488 79.9075 26.744 81.5715 27.256C83.2355 27.768 84.6862 28.5573 85.9235 29.624C87.1608 30.6907 88.1208 32.056 88.8035 33.72C89.4862 35.3413 89.8275 37.2827 89.8275 39.544V59H81.5075V41.016C81.5075 38.328 80.8462 36.3653 79.5235 35.128C78.2435 33.848 76.1315 33.208 73.1875 33.208C70.9688 33.208 68.9635 33.6347 67.1715 34.488C65.3795 35.3413 63.9288 36.4293 62.8195 37.752C61.7102 39.032 61.0702 40.376 60.8995 41.784L60.8355 38.52C61.0488 37.0267 61.5395 35.576 62.3075 34.168C63.0755 32.76 64.0995 31.48 65.3795 30.328C66.7022 29.1333 68.2595 28.1947 70.0515 27.512C71.8435 26.8293 73.8702 26.488 76.1315 26.488ZM113.275 54.136C109.819 54.136 106.768 53.624 104.123 52.6C101.52 51.5333 99.4932 49.976 98.0425 47.928C96.5918 45.88 95.8665 43.4053 95.8665 40.504C95.8665 37.6453 96.5705 35.1707 97.9785 33.08C99.3865 30.9893 101.392 29.368 103.995 28.216C106.64 27.064 109.733 26.488 113.275 26.488C114.256 26.488 115.195 26.552 116.091 26.68C117.029 26.808 117.947 26.9787 118.843 27.192L134.907 27.256V33.528C132.731 33.5707 130.512 33.3147 128.251 32.76C126.032 32.1627 124.069 31.5227 122.363 30.84L122.171 30.392C123.621 31.0747 124.987 31.928 126.267 32.952C127.547 33.9333 128.571 35.0853 129.339 36.408C130.149 37.688 130.555 39.1813 130.555 40.888C130.555 43.6613 129.851 46.0507 128.443 48.056C127.035 50.0187 125.029 51.5333 122.427 52.6C119.867 53.624 116.816 54.136 113.275 54.136ZM123.963 72.12V70.584C123.963 68.6213 123.323 67.256 122.043 66.488C120.805 65.72 119.099 65.336 116.923 65.336H107.003C105.083 65.336 103.461 65.1867 102.139 64.888C100.859 64.5893 99.8345 64.1627 99.0665 63.608C98.2985 63.0533 97.7438 62.392 97.4025 61.624C97.0612 60.8987 96.8905 60.1093 96.8905 59.256C96.8905 57.5493 97.4452 56.2693 98.5545 55.416C99.6638 54.52 101.157 53.9227 103.035 53.624C104.912 53.3253 106.981 53.2613 109.243 53.432L113.275 54.136C110.587 54.2213 108.581 54.456 107.259 54.84C105.979 55.1813 105.339 55.8853 105.339 56.952C105.339 57.592 105.595 58.104 106.107 58.488C106.619 58.8293 107.344 59 108.283 59H118.715C121.573 59 124.005 59.2987 126.011 59.896C128.059 60.536 129.616 61.5813 130.683 63.032C131.749 64.5253 132.283 66.552 132.283 69.112V72.12H123.963ZM113.275 48.12C115.109 48.12 116.709 47.8213 118.075 47.224C119.483 46.6267 120.571 45.7733 121.339 44.664C122.107 43.512 122.491 42.1467 122.491 40.568C122.491 38.9467 122.107 37.56 121.339 36.408C120.571 35.256 119.504 34.3813 118.139 33.784C116.773 33.144 115.152 32.824 113.275 32.824C111.44 32.824 109.819 33.144 108.411 33.784C107.003 34.3813 105.915 35.256 105.147 36.408C104.379 37.56 103.995 38.9467 103.995 40.568C103.995 42.1467 104.379 43.512 105.147 44.664C105.915 45.7733 106.981 46.6267 108.347 47.224C109.755 47.8213 111.397 48.12 113.275 48.12ZM155.65 54.136C152.194 54.136 149.143 53.624 146.498 52.6C143.895 51.5333 141.868 49.976 140.418 47.928C138.967 45.88 138.242 43.4053 138.242 40.504C138.242 37.6453 138.946 35.1707 140.354 33.08C141.762 30.9893 143.767 29.368 146.37 28.216C149.015 27.064 152.108 26.488 155.65 26.488C156.631 26.488 157.57 26.552 158.466 26.68C159.404 26.808 160.322 26.9787 161.218 27.192L177.282 27.256V33.528C175.106 33.5707 172.887 33.3147 170.626 32.76C168.407 32.1627 166.444 31.5227 164.738 30.84L164.546 30.392C165.996 31.0747 167.362 31.928 168.642 32.952C169.922 33.9333 170.946 35.0853 171.714 36.408C172.524 37.688 172.93 39.1813 172.93 40.888C172.93 43.6613 172.226 46.0507 170.818 48.056C169.41 50.0187 167.404 51.5333 164.802 52.6C162.242 53.624 159.191 54.136 155.65 54.136ZM166.338 72.12V70.584C166.338 68.6213 165.698 67.256 164.418 66.488C163.18 65.72 161.474 65.336 159.298 65.336H149.378C147.458 65.336 145.836 65.1867 144.514 64.888C143.234 64.5893 142.21 64.1627 141.442 63.608C140.674 63.0533 140.119 62.392 139.778 61.624C139.436 60.8987 139.266 60.1093 139.266 59.256C139.266 57.5493 139.82 56.2693 140.93 55.416C142.039 54.52 143.532 53.9227 145.41 53.624C147.287 53.3253 149.356 53.2613 151.618 53.432L155.65 54.136C152.962 54.2213 150.956 54.456 149.634 54.84C148.354 55.1813 147.714 55.8853 147.714 56.952C147.714 57.592 147.97 58.104 148.482 58.488C148.994 58.8293 149.719 59 150.658 59H161.09C163.948 59 166.38 59.2987 168.386 59.896C170.434 60.536 171.991 61.5813 173.058 63.032C174.124 64.5253 174.658 66.552 174.658 69.112V72.12H166.338ZM155.65 48.12C157.484 48.12 159.084 47.8213 160.45 47.224C161.858 46.6267 162.946 45.7733 163.714 44.664C164.482 43.512 164.866 42.1467 164.866 40.568C164.866 38.9467 164.482 37.56 163.714 36.408C162.946 35.256 161.879 34.3813 160.514 33.784C159.148 33.144 157.527 32.824 155.65 32.824C153.815 32.824 152.194 33.144 150.786 33.784C149.378 34.3813 148.29 35.256 147.522 36.408C146.754 37.56 146.37 38.9467 146.37 40.568C146.37 42.1467 146.754 43.512 147.522 44.664C148.29 45.7733 149.356 46.6267 150.722 47.224C152.13 47.8213 153.772 48.12 155.65 48.12ZM197.641 59.704C194.483 59.704 191.603 59.0213 189.001 57.656C186.441 56.248 184.393 54.3067 182.857 51.832C181.363 49.3147 180.617 46.4133 180.617 43.128C180.617 39.7573 181.385 36.8347 182.921 34.36C184.457 31.8853 186.526 29.9653 189.129 28.6C191.774 27.192 194.761 26.488 198.089 26.488C201.758 26.488 204.702 27.2347 206.921 28.728C209.182 30.1787 210.825 32.1627 211.849 34.68C212.873 37.1973 213.385 40.0133 213.385 43.128C213.385 45.0053 213.086 46.9253 212.489 48.888C211.891 50.808 210.974 52.6 209.737 54.264C208.499 55.8853 206.878 57.208 204.873 58.232C202.867 59.2133 200.457 59.704 197.641 59.704ZM200.329 53.304C202.846 53.304 205.022 52.8773 206.857 52.024C208.691 51.1707 210.099 49.976 211.081 48.44C212.062 46.904 212.553 45.1333 212.553 43.128C212.553 40.952 212.041 39.1173 211.017 37.624C210.035 36.088 208.627 34.936 206.793 34.168C205.001 33.3573 202.846 32.952 200.329 32.952C196.787 32.952 194.035 33.8907 192.073 35.768C190.11 37.6027 189.129 40.056 189.129 43.128C189.129 45.176 189.598 46.968 190.537 48.504C191.475 49.9973 192.777 51.1707 194.441 52.024C196.147 52.8773 198.11 53.304 200.329 53.304ZM212.553 27.192H220.873V59H213.129C213.129 59 213.065 58.5947 212.937 57.784C212.851 56.9307 212.766 55.864 212.681 54.584C212.595 53.304 212.553 52.0453 212.553 50.808V27.192ZM228.403 27.192H236.723V59H228.403V27.192ZM248.947 34.04C246.557 34.04 244.488 34.5093 242.739 35.448C240.989 36.344 239.581 37.4533 238.515 38.776C237.448 40.0987 236.701 41.3787 236.275 42.616L236.211 39.096C236.253 38.584 236.424 37.8373 236.723 36.856C237.021 35.832 237.469 34.744 238.067 33.592C238.664 32.3973 239.453 31.2667 240.435 30.2C241.416 29.0907 242.611 28.1947 244.019 27.512C245.427 26.8293 247.069 26.488 248.947 26.488V34.04Z" fill="#141414"/>
</svg>
